<svg id="Layer_1" data-name="Layer 1" xmlns="http://www.w3.org/2000/svg" viewBox="0 0 1006.93 503.47"><defs><style>.cls-1{fill:#f2edda;}.cls-2{fill:#ae938d;}.cls-3{fill:#ffd0a1;}.cls-4{fill:#51565f;}</style></defs><title>wishing well</title><polygon class="cls-1" points="682.72 332.24 696.78 332.24 696.78 318.17 682.72 318.17 682.72 332.24"/><polygon class="cls-1" points="696.78 332.24 710.85 332.24 710.85 318.17 696.78 318.17 696.78 332.24"/><polygon class="cls-2" points="731.95 353.33 726.32 388.49 695.73 388.49 689.75 353.33 710.85 353.33 731.95 353.33"/><polygon class="cls-2" points="647.56 240.82 629.98 290.04 791.72 290.04 774.14 240.82 647.56 240.82"/><path class="cls-1" d="M763.59,318.17a7,7,0,0,1,0,14.07H710.85V318.17Z"/><polygon class="cls-3" points="726.32 388.49 763.59 388.49 770.62 444.75 651.08 444.75 658.11 388.49 695.73 388.49 726.32 388.49"/><path class="cls-1" d="M682.72,318.17v14.07H658.11a7,7,0,0,1,0-14.07Z"/><path class="cls-4" d="M770.62,446.51H644a1.76,1.76,0,0,1,0-3.52h5.63l6.68-54.85V346.3a1.76,1.76,0,0,1,3.52,0v42.19L653.19,443H768.86l-6.68-52.74h-90a1.76,1.76,0,1,1,0-3.52h89.66V346.3a1.76,1.76,0,0,1,3.52,0v42.19L772,443h19.69a1.76,1.76,0,0,1,0,3.52Zm42.19,0h-7a1.76,1.76,0,0,1,0-3.52h7a1.76,1.76,0,1,1,0,3.52Zm-182.83,0h-21.1a1.76,1.76,0,0,1,0-3.52H630a1.76,1.76,0,0,1,0,3.52Zm98.45-70.32h0c-1.41-.36-1.76-1.06-1.76-2.11l3.17-19h-38l3.17,19a1.79,1.79,0,1,1-3.52.7L688,353.68a2.06,2.06,0,0,1,.36-1.4,1.83,1.83,0,0,1,1.4-.71h19.34V334h-51a8.69,8.69,0,0,1-1.76-17.22V304.11a1.76,1.76,0,0,1,3.52,0v12.3h102v-12.3a1.76,1.76,0,0,1,3.52,0v12.66a9.11,9.11,0,0,1,7,6.68h19.34a1.66,1.66,0,0,1,1.76,1.75v12.31h19.33a1.76,1.76,0,1,1,0,3.52H791.72a1.66,1.66,0,0,1-1.76-1.76V327H772.38a8.77,8.77,0,0,1-8.79,7h-51v17.58h19.33a2.67,2.67,0,0,1,1.41.71,2.1,2.1,0,0,1,.35,1.4l-3.51,21.1C730.19,375.48,729.13,376.19,728.43,376.19Zm-15.82-45.71h51a5.28,5.28,0,0,0,0-10.55h-51Zm-14.07,0h10.55V319.93H698.54Zm-14.06,0H695V319.93H684.48Zm-26.37-10.55a5.28,5.28,0,1,0,0,10.55H681V319.93ZM791.72,291.8H630a1.86,1.86,0,0,1-1.41-.7,2.65,2.65,0,0,1-.35-1.76l17.58-49.22a1.93,1.93,0,0,1,1.76-1.06H774.14a1.94,1.94,0,0,1,1.76,1.06l17.58,49.22c.35.7,0,1.06-.36,1.76A1.82,1.82,0,0,1,791.72,291.8Zm-159.28-3.51H789.26l-16.18-45.71H649Z"/><path class="cls-4" d="M160.64,106.11V159l4.63,7.75h6.61l4.83-7.94V65.09A8.23,8.23,0,0,1,184.83,57a8.06,8.06,0,0,1,7.94,7.94v96.41q0,1.8-2,5l-7.37,12.19a7.43,7.43,0,0,1-6.9,4.07H161.58q-7.08,0-9.07-6.43-2.17,6.43-8.7,6.43h-14q-6,0-8.69-4.44l-6.81-11.44a10.89,10.89,0,0,1-1.89-5.39V65.09A8.23,8.23,0,0,1,120.56,57,7.27,7.27,0,0,1,126,59.37a8,8,0,0,1,2.32,5.72v94l4.63,7.56h6.81l5-7.94V106.11a7.94,7.94,0,1,1,15.88,0Z"/><path class="cls-4" d="M237.29,57h64.28a7.7,7.7,0,0,1,5.53,2.36,7.6,7.6,0,0,1,2.41,5.58,7.91,7.91,0,0,1-2.36,5.72A7.6,7.6,0,0,1,301.57,73h-24V166.7h24a7.9,7.9,0,0,1,7.94,7.94,7.58,7.58,0,0,1-2.36,5.62,7.7,7.7,0,0,1-5.58,2.32H237.29a7.94,7.94,0,1,1,0-15.88h24.39V73H237.29a7.59,7.59,0,0,1-5.62-2.36,7.7,7.7,0,0,1-2.32-5.58,7.92,7.92,0,0,1,2.32-5.77A7.59,7.59,0,0,1,237.29,57Z"/><path class="cls-4" d="M364.35,57h41.36q7.56,0,14.33,6.38a20.45,20.45,0,0,1,6.77,15.45,7.75,7.75,0,0,1-2.41,5.77,7.46,7.46,0,0,1-5.34,2.36q-4.06,0-5.58-1.84t-2.88-6.85q-1.38-5-6.11-5h-39.3c-1.9,0-2.84.61-2.84,1.83a4.05,4.05,0,0,0,1.15,2.67l59,75.28a18.7,18.7,0,0,1,4.27,11.71,17.52,17.52,0,0,1-5.15,12.48q-5.16,5.38-11.49,5.39H367.36a20,20,0,0,1-14.8-6.48q-6.29-6.47-6.28-14.22,0-8.88,8.31-8.89a7.43,7.43,0,0,1,5.49,2.32,7.51,7.51,0,0,1,2.27,5.43,5.71,5.71,0,0,0,1.74,4.26,6.07,6.07,0,0,0,4.4,1.7H408c1.7,0,2.55-.67,2.55-2a3.92,3.92,0,0,0-1.16-2.48L350.45,86.92a18.75,18.75,0,0,1-4.17-11.72,17.74,17.74,0,0,1,5.3-12.81A17.19,17.19,0,0,1,364.35,57Z"/><path class="cls-4" d="M463,174.64V64.9a7.7,7.7,0,0,1,2.32-5.58A7.58,7.58,0,0,1,471,57a8.06,8.06,0,0,1,7.94,7.94v46.79h48.4V64.9a7.73,7.73,0,0,1,2.31-5.58,7.88,7.88,0,0,1,11.25,0,8,8,0,0,1,2.32,5.77V174.64a7.6,7.6,0,0,1-2.41,5.58,7.7,7.7,0,0,1-5.53,2.36,7.59,7.59,0,0,1-5.67-2.32,7.69,7.69,0,0,1-2.27-5.62V127.57H479.08v47.07a7.56,7.56,0,0,1-2.41,5.58,7.91,7.91,0,0,1-5.72,2.36,7.7,7.7,0,0,1-5.58-2.32A7.58,7.58,0,0,1,463,174.64Z"/><path class="cls-4" d="M588.06,57h64.28a7.7,7.7,0,0,1,5.53,2.36,7.56,7.56,0,0,1,2.41,5.58,7.91,7.91,0,0,1-2.36,5.72A7.6,7.6,0,0,1,652.34,73h-24V166.7h24a7.9,7.9,0,0,1,7.94,7.94,7.58,7.58,0,0,1-2.36,5.62,7.7,7.7,0,0,1-5.58,2.32H588.06a7.94,7.94,0,1,1,0-15.88h24.39V73H588.06a7.59,7.59,0,0,1-5.62-2.36,7.74,7.74,0,0,1-2.32-5.58,8,8,0,0,1,2.32-5.77A7.59,7.59,0,0,1,588.06,57Z"/><path class="cls-4" d="M777.2,65.09V182.58H755.91L713.12,85v89.61a7.94,7.94,0,1,1-15.88,0V57h21l42.91,97.36V65.09A8.23,8.23,0,0,1,769.26,57a7.61,7.61,0,0,1,5.63,2.36A8,8,0,0,1,777.2,65.09Z"/><path class="cls-4" d="M860.19,57h26.37a7.9,7.9,0,0,1,7.94,7.94A7.54,7.54,0,0,1,892,70.71,7.85,7.85,0,0,1,886.55,73H861.37a7.88,7.88,0,0,0-6.43,3.45l-22.28,28.67q-2.82,3.41-2.81,9.46v44a7.92,7.92,0,0,0,2.32,5.77,7.58,7.58,0,0,0,5.62,2.36h32.33a8.08,8.08,0,0,0,7.94-7.94v-17.2H861.61a7.59,7.59,0,0,1-5.67-2.32,8.1,8.1,0,0,1,0-11.25,7.61,7.61,0,0,1,5.67-2.31h32.33v33.08a23.9,23.9,0,0,1-23.82,23.82H837.79a23.19,23.19,0,0,1-17-7,22.87,22.87,0,0,1-7-16.82V114.81q0-11.82,6.33-20l23.45-29.77A21.88,21.88,0,0,1,860.19,57Z"/><path class="cls-4" d="M160.64,348.24v52.84l4.63,7.75h6.61l4.83-7.94V307.22a8.23,8.23,0,0,1,8.12-8.13,8.06,8.06,0,0,1,7.94,7.94v96.41q0,1.8-2,5l-7.37,12.19a7.43,7.43,0,0,1-6.9,4.07H161.58q-7.08,0-9.07-6.43-2.17,6.44-8.7,6.43h-14q-6,0-8.69-4.44l-6.81-11.44a10.89,10.89,0,0,1-1.89-5.39V307.22a8.23,8.23,0,0,1,8.13-8.13A7.27,7.27,0,0,1,126,301.5a8,8,0,0,1,2.32,5.72v94l4.63,7.56h6.81l5-7.94V348.24a7.94,7.94,0,1,1,15.88,0Z"/><path class="cls-4" d="M301.57,315.16H245.42v38.66h24.2a8.06,8.06,0,0,1,7.94,7.94,7.88,7.88,0,0,1-2.32,5.76,7.56,7.56,0,0,1-5.62,2.37h-24.2v38.94h56.34a7.66,7.66,0,0,1,5.57,2.32,7.8,7.8,0,0,1,0,11.24,8,8,0,0,1-5.72,2.32h-72V299.09h72a8.23,8.23,0,0,1,8.13,8.13,7.56,7.56,0,0,1-2.41,5.57A7.9,7.9,0,0,1,301.57,315.16Z"/><path class="cls-4" d="M346.47,424.71V307a7.94,7.94,0,0,1,15.88,0v101.8h56.14a8,8,0,0,1,5.72,2.32,7.76,7.76,0,0,1,0,11.24,8,8,0,0,1-5.72,2.32Z"/><path class="cls-4" d="M463.39,424.71V307a7.94,7.94,0,0,1,15.88,0v101.8h56.15a7.93,7.93,0,0,1,5.71,2.32,7.76,7.76,0,0,1,0,11.24,7.93,7.93,0,0,1-5.71,2.32Z"/></svg>